
<svg height="477pt" viewBox="-126 0 477 477.26053" width="477pt" xmlns="http://www.w3.org/2000/svg"><path d="m208.929688 108.460938-72-88.617188c-6.074219-7.476562-15.199219-11.816406-24.832032-11.816406-9.632812 0-18.753906 4.339844-24.832031 11.816406l-71.933594 88.617188c-4.644531 5.695312-7.1875 12.8125-7.203125 20.160156v324.640625c0 8.835937 7.164063 16 16 16h176c8.839844 0 16-7.164063 16-16v-324.640625c-.011718-7.347656-2.554687-14.464844-7.199218-20.160156zm-96.800782-39.199219c13.257813 0 24 10.742187 24 24 0 13.253906-10.742187 24-24 24-13.253906 0-24-10.746094-24-24 0-13.257813 10.746094-24 24-24zm0 0" fill="#9bc9ff"/><g fill="#1e81ce"><path d="m200.128906 477.261719h-176c-13.253906 0-24-10.746094-24-24v-324.640625c.007813-9.183594 3.167969-18.085938 8.953125-25.214844l72-88.625c7.597657-9.351562 19-14.78125 31.046875-14.78125s23.453125 5.429688 31.050782 14.78125l72 88.625c5.78125 7.128906 8.941406 16.03125 8.949218 25.214844v324.640625c0 13.253906-10.742187 24-24 24zm-88-461.257813c-7.226562-.011718-14.074218 3.246094-18.621094 8.863282l-72 88.617187c-3.476562 4.28125-5.375 9.625-5.378906 15.136719v324.640625c0 4.417969 3.582032 8 8 8h176c4.417969 0 8-3.582031 8-8v-324.640625c-.003906-5.511719-1.902344-10.855469-5.375-15.136719l-72-88.617187c-4.546875-5.617188-11.394531-8.875-18.625-8.863282zm0 0"/><path d="m112.128906 125.261719c-17.671875 0-32-14.328125-32-32 0-17.675781 14.328125-32 32-32 17.675782 0 32 14.324219 32 32 0 17.671875-14.324218 32-32 32zm0-48c-8.835937 0-16 7.164062-16 16 0 8.835937 7.164063 16 16 16 8.839844 0 16-7.164063 16-16 0-8.835938-7.160156-16-16-16zm0 0"/><path d="m64.128906 189.261719h96v16h-96zm0 0"/><path d="m88.128906 213.261719h32v16h-32zm0 0"/><path d="m72.128906 213.261719h8v16h-8zm0 0"/><path d="m72.128906 237.261719h8v16h-8zm0 0"/><path d="m72.128906 261.261719h8v16h-8zm0 0"/><path d="m72.128906 333.261719h8v16h-8zm0 0"/><path d="m72.128906 309.261719h8v16h-8zm0 0"/><path d="m88.128906 261.261719h32v16h-32zm0 0"/><path d="m64.128906 285.261719h96v16h-96zm0 0"/><path d="m88.128906 333.261719h32v16h-32zm0 0"/><path d="m64.128906 357.261719h96v16h-96zm0 0"/><path d="m128.128906 213.261719h32v16h-32zm0 0"/><path d="m88.128906 237.261719h24v16h-24zm0 0"/><path d="m120.128906 237.261719h40v16h-40zm0 0"/><path d="m128.128906 261.261719h32v16h-32zm0 0"/><path d="m88.128906 309.261719h24v16h-24zm0 0"/><path d="m120.128906 309.261719h40v16h-40zm0 0"/><path d="m128.128906 333.261719h32v16h-32zm0 0"/></g></svg>